
        <svg xmlns="http://www.w3.org/2000/svg" xmlns:xlink="http://www.w3.org/1999/xlink" version="1.1" width="3143.606046314146" 
        height="820.0468177785086" viewBox="0 0 3143.606046314146 820.0468177785086">
			
			<g transform="scale(7.180302315707302) translate(10, 10)">
				<defs id="SvgjsDefs6625"></defs><g id="SvgjsG6626" featureKey="symbolFeature-0" transform="matrix(1,0,0,1,-0.718999981880188,-2.8961544036865234)" fill="#1b8381"><g xmlns="http://www.w3.org/2000/svg"><g><path d="M20.423,49.137l6.569-0.057l-13.25-13.024L0.719,49.306l6.568-0.056c0.207,24.128,19.067,43.82,42.744,45.475    c5.935-12.685,5.312-11.185,6.106-13.15c-0.857,0.076-1.721,0.115-2.59,0.123C35.433,81.854,20.579,67.252,20.423,49.137z     M30.695,24.998c13.157-12.451,33.979-11.875,46.428,1.283l-4.77,4.515l18.571,0.513l0.513-18.572l-4.771,4.515    C69.244-1.163,40.08-1.969,21.666,15.455c-3.991,3.775-7.217,8.146-9.593,12.921c0.862,0.679,0.862,0.679,10.175,9.644    C23.955,33.121,26.819,28.665,30.695,24.998z M97.176,35.192c-3.396,0.16,3.979,0.058-14.027,0.03    c0.094,0.205,0.186,0.41,0.274,0.618c7.181,16.633-0.504,35.991-17.135,43.171l-2.603-6.028L56.832,90.25L74.1,97.104    l-2.604-6.028C93.266,81.674,104.088,57.344,97.176,35.192z"></path></g></g></g><g id="SvgjsG6627" featureKey="NcgQJ4-0" transform="matrix(3.3870970520591364,0,0,3.3870970520591364,116.56129083315867,-13.322582312354818)" fill="#111111"><path d="M10.76 16.58 l0 3.08 c-1.24 0.34 -2.48 0.48 -3.76 0.48 c-3.76 0 -6.28 -2.58 -6.28 -6.24 c0 -3.76 2.62 -6.24 6.26 -6.24 c1.26 0 2.58 0.1 3.78 0.48 l0 3.08 c-0.98 -0.48 -2.52 -0.66 -3.6 -0.66 c-2.44 0 -3.44 1 -3.44 3.32 c0 2.46 1.18 3.36 3.46 3.36 c1.02 0 2.68 -0.16 3.58 -0.66 z M19.38 15 c-0.08 -1.46 -0.74 -2.32 -2.26 -2.32 c-0.42 0 -0.78 0.06 -1.08 0.18 c-0.92 0.42 -1.26 1.2 -1.26 2.16 c0 0.32 0.04 0.62 0.14 0.88 c0.3 1.04 1.2 1.42 2.2 1.42 c1.52 0 2.26 -0.82 2.26 -2.32 z M23.18 20 l-3 0 c-0.2 -0.5 -0.38 -1 -0.5 -1.52 c-0.68 1.12 -1.72 1.62 -3 1.62 c-2.86 0 -4.9 -2.4 -4.9 -5.14 c0 -3.16 2.36 -5.06 5.34 -5.06 c3.18 0 5.18 2.04 5.26 5.1 c0.02 0.26 0.02 0.56 0.02 0.92 c0 1.4 0.22 2.8 0.78 4.08 z M23.919999999999998 19.68 l0 -2.8 c1.32 0.4 2.98 0.48 4.34 0.48 c0.54 0 0.96 -0.02 1.26 -0.08 c0.28 -0.04 0.42 -0.14 0.42 -0.28 c0 -0.06 -0.02 -0.1 -0.06 -0.16 c-0.2 -0.2 -0.64 -0.3 -0.9 -0.36 s-0.6 -0.14 -1.02 -0.22 c-0.34 -0.06 -0.74 -0.14 -1.2 -0.24 c-1.56 -0.34 -2.76 -1.22 -2.76 -2.9 c0 -2.48 2.42 -3.22 4.46 -3.22 c1.28 0 2.56 0.18 3.82 0.44 l0 2.82 c-1.26 -0.38 -2.68 -0.48 -4 -0.48 c-0.52 0 -0.88 0.02 -1.1 0.08 s-0.34 0.16 -0.34 0.28 c0 0.18 0.18 0.3 0.52 0.36 c0.34 0.08 0.82 0.18 1.4 0.28 c0.52 0.1 1.02 0.2 1.5 0.32 c1.48 0.38 2.54 1.18 2.54 2.78 c0 2.68 -2.7 3.34 -4.86 3.34 c-1.36 0 -2.7 -0.18 -4.02 -0.44 z M37.22 15 l0 5 l-3 0 l0 -14 l3 0 l0 4.92 c0.7 -0.74 1.58 -1.02 2.58 -1.02 c2.84 0 4.62 2.44 4.62 5.1 l0 5 l-3 0 l0 -5 c0 -1.36 -0.54 -2.32 -2 -2.32 c-1.44 0 -2.2 0.92 -2.2 2.32 z M45.8 19.7 l0 -2.82 c0.24 0.06 0.54 0.12 0.88 0.16 c0.34 0.06 0.7 0.1 1.08 0.12 s0.76 0.04 1.16 0.06 s0.78 0.04 1.12 0.04 c0.94 0 1.6 -0.06 2 -0.16 c0.38 -0.1 0.58 -0.28 0.58 -0.56 c0 -0.24 -0.18 -0.42 -0.36 -0.56 c-0.66 -0.44 -1.44 -0.62 -2.22 -0.8 c-2.2 -0.44 -4.22 -1.32 -4.22 -3.84 c0 -2.98 2.82 -3.68 5.24 -3.68 c1.34 0 2.7 0.14 4 0.46 l0 2.82 c-0.2 -0.06 -0.46 -0.1 -0.78 -0.16 c-0.34 -0.04 -0.68 -0.08 -1.06 -0.12 c-0.78 -0.08 -1.52 -0.12 -2.3 -0.12 c-0.44 0 -1.36 0 -1.78 0.16 c-0.28 0.1 -0.46 0.22 -0.46 0.54 c0 0.16 0.04 0.3 0.12 0.42 c0.08 0.14 0.22 0.24 0.4 0.34 c0.54 0.3 1.24 0.48 1.84 0.62 c0.5 0.12 1 0.26 1.52 0.4 c1.76 0.48 2.92 1.46 2.92 3.34 c0 3.1 -3.08 3.76 -5.56 3.76 c-1.36 0 -2.78 -0.1 -4.12 -0.42 z M64.03999999999999 15 l0 -5 l3 0 l0 9.48 c0 3.18 -2.28 5.12 -5.3 5.12 c-1.06 0 -2.12 -0.1 -3.14 -0.44 l0 -3.08 c0.86 0.46 2.02 0.62 2.98 0.62 c1.08 0 1.94 -0.32 2.34 -1.36 c0.08 -0.28 0.12 -0.58 0.12 -0.88 l0 -0.46 c-0.68 0.76 -1.56 1.1 -2.56 1.1 c-2.84 0 -4.64 -2.44 -4.64 -5.1 l0 -5 l3 0 l0 5 c0 1.36 0.54 2.32 2 2.32 c1.42 0 2.2 -0.94 2.2 -2.32 z M79.24000000000001 15 l0 5 l-3 0 l0 -5 c0 -1.38 -0.64 -2.32 -2.1 -2.32 c-1.44 0 -2.1 0.96 -2.1 2.32 l0 5 l-3 0 l0 -5 c0 -3.08 2.12 -5.1 5.1 -5.1 c3.1 0 5.1 2.12 5.1 5.1 z M88.94000000000001 16.7 l0 3 c-1.02 0.34 -2.08 0.44 -3.14 0.44 c-3.1 0 -5.3 -2.06 -5.3 -5.12 c0 -3.18 2.28 -5.12 5.3 -5.12 c1.06 0 2.12 0.1 3.14 0.44 l0 3 c-0.88 -0.46 -1.98 -0.58 -2.96 -0.58 c-0.66 0 -1.46 0.14 -1.92 0.66 c-0.42 0.42 -0.56 1.02 -0.56 1.58 c0 0.32 0.04 0.62 0.14 0.88 c0.08 0.28 0.22 0.52 0.42 0.72 c0.44 0.54 1.26 0.68 1.92 0.68 c0.88 0 2.18 -0.16 2.96 -0.58 z"></path></g><g id="SvgjsG6628" featureKey="sWXNXQ-0" transform="matrix(0.6555093332199742,0,0,0.6555093332199742,178.34449082306563,72.3327742476333)" fill="#000000"><path d="M4.24 20 c-0.14 0 -0.24 -0.12 -0.24 -0.26 l0 -9.44 l-2.74 0 c-0.14 0 -0.26 -0.1 -0.26 -0.24 l0 -2.3 c0 -0.14 0.12 -0.26 0.26 -0.26 l8.58 0 c0.16 0 0.26 0.12 0.26 0.26 l0 2.3 c0 0.14 -0.1 0.24 -0.26 0.24 l-2.74 0 l0 9.44 c0 0.14 -0.12 0.26 -0.26 0.26 l-2.6 0 z M16.045 20 c-0.16 0 -0.26 -0.12 -0.26 -0.26 l0 -11.98 c0 -0.14 0.1 -0.26 0.26 -0.26 l4.88 0 c1.52 0 2.72 0.38 3.56 1.16 c1.24 1.12 1.66 3.24 1.06 4.8 c-0.22 0.56 -0.6 1.08 -1.08 1.46 c-0.28 0.22 -0.58 0.38 -0.88 0.54 c0.86 1.36 2.16 4.12 2.16 4.12 c0.02 0.04 0.06 0.1 0.06 0.16 c0 0.14 -0.12 0.26 -0.26 0.26 l-2.96 0 c-0.08 0 -0.18 -0.06 -0.22 -0.14 l-1.74 -3.82 c-0.62 0.04 -1.1 0.02 -1.74 0.02 l0 3.68 c0 0.14 -0.12 0.26 -0.26 0.26 l-2.58 0 z M18.884999999999998 13.280000000000001 c0 0 2.52 0.28 3.4 -0.3 c0.34 -0.22 0.54 -0.76 0.54 -1.16 c-0.02 -0.44 -0.24 -0.9 -0.6 -1.18 c-0.38 -0.32 -1.32 -0.42 -1.8 -0.42 l-1.54 0.04 l0 3.02 z M31.770000000000003 20 c-0.08 0 -0.16 -0.04 -0.2 -0.12 c-0.06 -0.06 -0.06 -0.16 -0.04 -0.24 l4.66 -11.98 c0.04 -0.1 0.14 -0.16 0.24 -0.16 l2.68 0 c0.1 0 0.2 0.06 0.24 0.16 l4.58 11.98 c0.02 0.08 0.02 0.16 -0.04 0.24 c-0.04 0.08 -0.12 0.12 -0.2 0.12 l-2.78 0 c-0.1 0 -0.2 -0.06 -0.24 -0.16 l-0.74 -1.84 l-4.5 0.02 l-0.74 1.82 c-0.04 0.1 -0.14 0.16 -0.24 0.16 l-2.68 0 z M36.25 15.5 l2.88 0 l-1.44 -4.24 z M54.535 20 c-1.18 0 -2.26 -0.28 -3.22 -0.84 c-0.96 -0.58 -1.72 -1.36 -2.26 -2.34 s-0.82 -2.08 -0.82 -3.3 c0 -1.18 0.28 -2.28 0.84 -3.26 c0.56 -0.96 1.34 -1.74 2.3 -2.3 c0.98 -0.56 2.08 -0.84 3.24 -0.84 c0.88 0 1.74 0.2 2.58 0.56 c0.84 0.38 1.56 0.88 2.16 1.52 c0.08 0.1 0.08 0.24 0 0.34 l-1.9 1.56 c-0.06 0.06 -0.12 0.1 -0.2 0.1 s-0.16 -0.04 -0.2 -0.1 c-1.02 -1.24 -2.66 -1.5 -4.04 -0.64 c-1.2 0.74 -1.64 2.1 -1.58 3.46 c0.06 1.38 1.06 2.56 2.38 2.96 c1.2 0.36 2.38 0.08 3.24 -0.84 c0.06 -0.04 0.12 -0.08 0.2 -0.06 c0.08 0 0.14 0.02 0.18 0.08 l1.94 1.36 c0.08 0.1 0.08 0.24 0 0.34 c-0.64 0.68 -1.4 1.24 -2.24 1.64 c-0.86 0.4 -1.74 0.6 -2.6 0.6 z M65.38000000000001 20 c-0.14 0 -0.26 -0.12 -0.26 -0.26 l0 -11.98 c0 -0.14 0.12 -0.26 0.26 -0.26 l2.6 0 c0.14 0 0.26 0.12 0.26 0.26 l0 3.54 l3.62 -3.72 c0.06 -0.04 0.12 -0.08 0.2 -0.08 l3.02 0 c0.1 0 0.2 0.06 0.24 0.14 c0.04 0.1 0.02 0.2 -0.04 0.28 l-4.04 4.32 l4.5 7.34 c0.04 0.04 0.06 0.1 0.06 0.16 c0 0.14 -0.12 0.26 -0.26 0.26 l-3.12 0 c-0.08 0 -0.16 -0.04 -0.2 -0.12 l-3.3 -5.58 l-0.68 0.6 l0 4.84 c0 0.14 -0.12 0.26 -0.26 0.26 l-2.6 0 z  M95.07 20 c-0.14 0 -0.24 -0.12 -0.24 -0.26 l0 -4.76 l-4.24 -7.1 c-0.04 -0.08 -0.04 -0.18 0.02 -0.26 c0.04 -0.08 0.12 -0.12 0.22 -0.12 l2.6 0 c0.1 0 0.18 0.04 0.22 0.14 l2.72 4.44 l2.66 -4.44 c0.04 -0.08 0.12 -0.14 0.22 -0.14 l2.62 0 c0.08 0 0.18 0.04 0.22 0.12 s0.04 0.18 0 0.26 l-4.16 7.02 l0 4.84 c0 0.14 -0.12 0.26 -0.26 0.26 l-2.6 0 z M112.63499999999999 20 c-1.2 0 -2.3 -0.28 -3.26 -0.84 c-0.98 -0.56 -1.76 -1.36 -2.34 -2.32 c-0.56 -0.98 -0.84 -2.1 -0.84 -3.3 c0 -1.18 0.28 -2.28 0.84 -3.26 c0.58 -0.98 1.34 -1.76 2.32 -2.32 s2.08 -0.84 3.28 -0.84 c1.18 0 2.28 0.28 3.26 0.84 s1.76 1.34 2.32 2.32 c0.58 0.98 0.86 2.08 0.86 3.26 c0 1.2 -0.28 2.3 -0.86 3.28 c-0.56 0.98 -1.34 1.76 -2.32 2.34 c-0.98 0.56 -2.08 0.84 -3.26 0.84 z M112.675 17.12 c0.58 0 1.12 -0.16 1.6 -0.46 c0.5 -0.32 0.9 -0.74 1.18 -1.3 c0.3 -0.54 0.44 -1.16 0.44 -1.82 c0 -0.64 -0.14 -1.26 -0.44 -1.8 c-0.28 -0.54 -0.68 -0.96 -1.18 -1.28 c-0.48 -0.3 -1.02 -0.46 -1.6 -0.46 c-0.6 0 -1.14 0.16 -1.64 0.46 c-0.52 0.32 -0.92 0.74 -1.22 1.28 c-0.3 0.56 -0.44 1.16 -0.44 1.8 c0 0.66 0.14 1.28 0.44 1.82 c0.32 0.54 0.72 0.98 1.22 1.28 c0.5 0.32 1.04 0.48 1.64 0.48 z M129.98 20 c-1.08 0 -1.86 -0.22 -2.68 -0.66 c-0.8 -0.44 -1.44 -1.06 -1.88 -1.88 c-0.44 -0.8 -0.66 -1.76 -0.66 -2.86 l0 -7.04 c0 -0.14 0.12 -0.24 0.26 -0.24 l2.6 0 c0.14 0 0.24 0.1 0.24 0.24 l0 7.04 c0 0.8 0.22 1.42 0.64 1.86 s0.8 0.66 1.5 0.66 s1.06 -0.22 1.46 -0.64 c0.4 -0.44 0.6 -1.08 0.6 -1.88 l0 -7.04 c0 -0.14 0.12 -0.24 0.26 -0.24 l2.6 0 c0.14 0 0.26 0.1 0.26 0.24 l0 7.04 c0 1.1 -0.22 2.06 -0.66 2.86 c-0.42 0.82 -1.06 1.44 -1.86 1.88 s-1.6 0.66 -2.68 0.66 z M141.12499999999997 20 c-0.16 0 -0.26 -0.12 -0.26 -0.26 l0 -11.98 c0 -0.14 0.1 -0.26 0.26 -0.26 l4.88 0 c1.52 0 2.72 0.38 3.56 1.16 c1.24 1.12 1.66 3.24 1.06 4.8 c-0.22 0.56 -0.6 1.08 -1.08 1.46 c-0.28 0.22 -0.58 0.38 -0.88 0.54 c0.86 1.36 2.16 4.12 2.16 4.12 c0.02 0.04 0.06 0.1 0.06 0.16 c0 0.14 -0.12 0.26 -0.26 0.26 l-2.96 0 c-0.08 0 -0.18 -0.06 -0.22 -0.14 l-1.74 -3.82 c-0.62 0.04 -1.1 0.02 -1.74 0.02 l0 3.68 c0 0.14 -0.12 0.26 -0.26 0.26 l-2.58 0 z M143.96499999999997 13.280000000000001 c0 0 2.52 0.28 3.4 -0.3 c0.34 -0.22 0.54 -0.76 0.54 -1.16 c-0.02 -0.44 -0.24 -0.9 -0.6 -1.18 c-0.38 -0.32 -1.32 -0.42 -1.8 -0.42 l-1.54 0.04 l0 3.02 z M165.93499999999997 20 c-0.14 0 -0.26 -0.12 -0.26 -0.26 l0 -11.98 c0 -0.14 0.12 -0.26 0.26 -0.26 l2.88 0 c0.1 0 0.2 0.06 0.24 0.14 l3 7.4 l2.98 -7.4 c0.04 -0.08 0.14 -0.14 0.24 -0.14 l2.88 0 c0.14 0 0.26 0.12 0.26 0.26 l0 11.98 c0 0.14 -0.12 0.26 -0.26 0.26 l-2.34 0 c-0.14 0 -0.26 -0.12 -0.26 -0.26 l0 -6.44 l-2.44 6.2 c-0.04 0.08 -0.14 0.14 -0.22 0.14 l-1.68 0 c-0.1 0 -0.2 -0.06 -0.24 -0.14 l-2.46 -6.2 l0 6.44 c0 0.14 -0.12 0.26 -0.26 0.26 l-2.32 0 z M190.34 20 c-1.2 0 -2.3 -0.28 -3.26 -0.84 c-0.98 -0.56 -1.76 -1.36 -2.34 -2.32 c-0.56 -0.98 -0.84 -2.1 -0.84 -3.3 c0 -1.18 0.28 -2.28 0.84 -3.26 c0.58 -0.98 1.34 -1.76 2.32 -2.32 s2.08 -0.84 3.28 -0.84 c1.18 0 2.28 0.28 3.26 0.84 s1.76 1.34 2.32 2.32 c0.58 0.98 0.86 2.08 0.86 3.26 c0 1.2 -0.28 2.3 -0.86 3.28 c-0.56 0.98 -1.34 1.76 -2.32 2.34 c-0.98 0.56 -2.08 0.84 -3.26 0.84 z M190.38 17.12 c0.58 0 1.12 -0.16 1.6 -0.46 c0.5 -0.32 0.9 -0.74 1.18 -1.3 c0.3 -0.54 0.44 -1.16 0.44 -1.82 c0 -0.64 -0.14 -1.26 -0.44 -1.8 c-0.28 -0.54 -0.68 -0.96 -1.18 -1.28 c-0.48 -0.3 -1.02 -0.46 -1.6 -0.46 c-0.6 0 -1.14 0.16 -1.64 0.46 c-0.52 0.32 -0.92 0.74 -1.22 1.28 c-0.3 0.56 -0.44 1.16 -0.44 1.8 c0 0.66 0.14 1.28 0.44 1.82 c0.32 0.54 0.72 0.98 1.22 1.28 c0.5 0.32 1.04 0.48 1.64 0.48 z M202.725 20 c-0.14 0 -0.26 -0.12 -0.26 -0.26 l0 -11.98 c0 -0.14 0.12 -0.26 0.26 -0.26 l2.36 0 c0.08 0 0.16 0.04 0.22 0.1 l4.6 7.1 l0 -6.94 c0 -0.14 0.12 -0.26 0.26 -0.26 l2.46 0 c0.14 0 0.26 0.12 0.26 0.26 l0 11.98 c0 0.14 -0.12 0.26 -0.26 0.26 l-2.36 0 c-0.08 0 -0.16 -0.04 -0.22 -0.1 l-4.58 -7.06 l0 6.9 c0 0.14 -0.12 0.26 -0.26 0.26 l-2.48 0 z M218.57 20 l0 -11.98 c0 -0.5 0.1 -0.6 0.26 -0.6 l8.76 0 c0.14 0 0.26 0.1 0.26 0.24 l0 2.26 c0 0.14 -0.12 0.26 -0.26 0.26 l-5.92 0 l0 2.08 l3.74 0 c0.14 0 0.26 0.12 0.26 0.26 l0 2.24 c0 0.14 -0.12 0.26 -0.26 0.26 l-3.74 0 l0 2.14 l5.9 0 c0.14 0 0.26 0.12 0.26 0.26 l0 2.24 c0 0.14 -0.12 0.26 -0.26 0.26 l-8.74 0 c-0.16 0 -0.26 -0.12 -0.26 0.08 z M238.035 20 c-0.14 0 -0.24 -0.12 -0.24 -0.26 l0 -4.76 l-4.24 -7.1 c-0.04 -0.08 -0.04 -0.18 0.02 -0.26 c0.04 -0.08 0.12 -0.12 0.22 -0.12 l2.6 0 c0.1 0 0.18 0.04 0.22 0.14 l2.72 4.44 l2.66 -4.44 c0.04 -0.08 0.12 -0.14 0.22 -0.14 l2.62 0 c0.08 0 0.18 0.04 0.22 0.12 s0.04 0.18 0 0.26 l-4.16 7.02 l0 4.84 c0 0.14 -0.12 0.26 -0.26 0.26 l-2.6 0 z"></path></g>
			</g>
		</svg>
	